<?xml version="1.0" standalone="no"?>
<!DOCTYPE svg PUBLIC "-//W3C//DTD SVG 1.1//EN"
  "http://www.w3.org/Graphics/SVG/1.1/DTD/svg11.dtd">
<svg width="37.00000071525574mm" height="37.00000190734863mm" viewBox="1.2000000476837158 -48.4000015258789 37.00000071525574 37.00000190734863" xmlns="http://www.w3.org/2000/svg" version="1.1">
	<title>svgOutput</title>
	<desc>made with tinkercad</desc>
<path d="M 36.76100158691406 -33.79399871826171 L 36.87666702270508 -32.76800155639648 L 37.20000076293945 -29.899999618530266 L 36.76100158691406 -26.00600051879882 L 35.46699905395508 -22.306999206542965 L 35.301998138427734 -22.044424057006832 L 33.98003387451172 -19.94069099426269 L 33.38199996948242 -18.989000320434567 L 32.768001556396484 -18.374999999999996 L 31.63820457458496 -17.245203018188473 L 30.611000061035156 -16.2180004119873 L 30.38055992126465 -16.073194503784176 L 27.71312141418457 -14.397000312805172 L 27.292999267578125 -14.133000373840328 L 23.5939998626709 -12.838999748229977 L 19.700000762939453 -12.39999961853027 L 16.384000778198242 -12.773838043212887 L 15.805999755859375 -12.838999748229977 L 13.476625442504883 -13.65387153625488 L 12.107000350952148 -14.133000373840328 L 11.68687915802002 -14.397000312805172 L 10.017053604125977 -15.446303367614743 L 9.962767601013184 -15.480415344238278 L 8.788999557495117 -16.2180004119873 L 7.045203685760498 -17.961795806884762 L 6.026962757110596 -18.98003768920898 L 6.01800012588501 -18.989000320434567 L 4.705834865570068 -21.0771369934082 L 4.296999931335449 -21.727743148803707 L 3.933000087738037 -22.306999206542965 L 2.6389999389648438 -26.00600051879882 L 2.200000047683716 -29.899999618530266 L 2.5233311653137207 -32.76800155639648 L 2.6389999389648438 -33.79399871826171 L 3.453871965408325 -36.12337493896484 L 3.933000087738037 -37.49300003051757 L 4.296999931335449 -38.07225799560546 L 5.246303081512451 -39.58294677734374 L 5.325748443603516 -39.70937347412109 L 6.01800012588501 -40.8110008239746 L 8.788999557495117 -43.58200073242187 L 8.952021598815918 -43.68444061279296 L 11.68687915802002 -45.40299987792968 L 12.107000350952148 -45.666999816894524 L 15.805999755859375 -46.96099853515624 L 16.384000778198242 -47.02616119384765 L 18.25595474243164 -47.23720169067382 L 19.700000762939453 -47.4000015258789 L 22.15135955810547 -47.123638153076165 L 23.5939998626709 -46.96099853515624 L 25.92337417602539 -46.14612960815429 L 27.292999267578125 -45.666999816894524 L 27.71312141418457 -45.40299987792968 L 29.382946014404297 -44.35369873046874 L 29.731449127197266 -44.13470077514648 L 30.611000061035156 -43.58200073242187 L 32.768001556396484 -41.42499923706054 L 33.38199996948242 -40.8110008239746 L 33.640926361083984 -40.39895248413085 L 35.301998138427734 -37.75557708740234 L 35.46699905395508 -37.49300003051757 L 36.76100158691406 -33.79399871826171 M 18.226980209350586 -45.153797149658196 L 16.384000778198242 -44.861831665039055 L 15.008999824523926 -44.64400100708007 L 10.687999725341797 -42.44200134277343 L 9.21825885772705 -40.97225952148437 L 7.257999897003174 -39.01200103759765 L 6.884188175201416 -38.27846527099609 L 5.305400848388672 -35.180400848388665 L 5.056000232696533 -34.69100189208984 L 4.751354217529297 -32.76800155639648 L 4.296999931335449 -29.899999618530266 L 5.056000232696533 -25.10899925231933 L 5.141288757324219 -24.941637039184563 L 6.575930118560791 -22.126430511474606 L 7.257999897003174 -20.78800010681152 L 8.627740859985352 -19.418258666992184 L 10.687999725341797 -17.35799980163574 L 11.366851806640625 -17.01205444335937 L 14.519598960876465 -15.405400276184078 L 15.008999824523926 -15.156000137329098 L 16.384000778198242 -14.938169479370114 L 19.799999237060547 -14.397000312805172 L 24.590999603271484 -15.156000137329098 L 27.85389518737793 -16.818786621093746 L 28.91200065612793 -17.35799980163574 L 30.489330291748047 -18.935329437255856 L 32.34199905395508 -20.78800010681152 L 32.768001556396484 -21.62394332885742 L 34.54399871826172 -25.10899925231933 L 35.301998138427734 -29.899999618530266 L 35.033084869384766 -31.59969520568847 L 34.848243713378906 -32.76800155639648 L 34.54399871826172 -34.69100189208984 L 32.768001556396484 -38.17605590820312 L 32.34199905395508 -39.01200103759765 L 30.664670944213867 -40.68933105468749 L 28.91200065612793 -42.44200134277343 L 27.938962936401367 -42.93786239624023 L 24.67256736755371 -44.602432250976555 L 24.590999603271484 -44.64400100708007 L 21.639310836791992 -45.111614227294915 L 19.799999237060547 -45.40299987792968 L 18.226980209350586 -45.153797149658196 z" fill="none" stroke="rgb(255,0,0)" stroke-width="0.001mm" />
</svg>